<svg width="50" height="50" viewBox="0 0 50 50" fill="none" xmlns="http://www.w3.org/2000/svg">
<path d="M25 35.1562C12.0836 35.1562 2.34375 30.7898 2.34375 25C2.34375 19.2102 12.0836 14.8438 25 14.8438C37.9156 14.8438 47.6562 19.2102 47.6562 25C47.6562 30.7898 37.9156 35.1562 25 35.1562ZM25 17.9688C13.8211 17.9688 5.46875 21.6805 5.46875 25C5.46875 28.3188 13.8211 32.0312 25 32.0312C36.1789 32.0312 44.5312 28.3188 44.5312 25C44.5312 21.6805 36.1789 17.9688 25 17.9688Z" fill="url(#paint0_linear)"/>
<path d="M33.5696 45.3296C31.4259 45.3296 28.9118 44.2664 26.2368 42.1882C22.6829 39.4281 19.1204 35.1273 16.204 30.0765C9.7462 18.8914 8.65714 8.27339 13.6712 5.37808C18.6845 2.48277 27.3368 8.73511 33.7954 19.9203C36.711 24.971 38.6548 30.207 39.2681 34.664C39.947 39.5968 38.9024 43.1328 36.3274 44.6187C35.504 45.0953 34.5774 45.3296 33.5696 45.3296ZM15.2337 8.08511C12.3595 9.74449 13.3212 18.8343 18.9103 28.5148C21.629 33.2234 24.9118 37.2031 28.1532 39.7211C30.9337 41.8796 33.404 42.7015 34.7649 41.9132C36.1259 41.1281 36.6517 38.5773 36.172 35.0914C35.6126 31.0257 33.8079 26.1929 31.0884 21.4843C25.5001 11.8039 18.1118 6.42808 15.2337 8.08511Z" fill="url(#paint1_linear)"/>
<path d="M16.4142 45.3258C15.4189 45.3258 14.4954 45.0977 13.6712 44.6219C11.097 43.1352 10.0525 39.6 10.7314 34.6672C11.3447 30.2094 13.2876 24.9735 16.204 19.9235C19.1197 14.8735 22.6829 10.5719 26.2369 7.81253C30.1681 4.75785 33.7517 3.89378 36.3275 5.38128C38.9025 6.86722 39.947 10.4032 39.2681 15.336C38.6548 19.7938 36.7119 25.0297 33.7954 30.0797C28.3993 39.4243 21.472 45.3258 16.4142 45.3258ZM18.9103 21.4852C16.1923 26.193 14.3868 31.0258 13.8275 35.0922C13.3478 38.5789 13.8736 41.1297 15.2337 41.9141C18.1095 43.5774 25.5001 38.1969 31.0884 28.5164C33.8072 23.8078 35.6126 18.9758 36.172 14.9094C36.6517 11.4235 36.1259 8.87269 34.765 8.08675C33.4072 7.30238 30.9337 8.12113 28.1533 10.2797C24.9118 12.7969 21.629 16.7766 18.9103 21.4852Z" fill="url(#paint2_linear)"/>
<path d="M25 28.9062C27.1574 28.9062 28.9062 27.1574 28.9062 25C28.9062 22.8426 27.1574 21.0938 25 21.0938C22.8426 21.0938 21.0938 22.8426 21.0938 25C21.0938 27.1574 22.8426 28.9062 25 28.9062Z" fill="url(#paint3_linear)"/>
<defs>
<linearGradient id="paint0_linear" x1="25" y1="45.6617" x2="25" y2="5.66406" gradientUnits="userSpaceOnUse">
<stop stop-color="#155CDE"/>
<stop offset="0.278" stop-color="#1F7FE5"/>
<stop offset="0.569" stop-color="#279CEB"/>
<stop offset="0.82" stop-color="#2CAFEF"/>
<stop offset="1" stop-color="#2EB5F0"/>
</linearGradient>
<linearGradient id="paint1_linear" x1="24.9993" y1="45.4617" x2="24.9993" y2="4.07027" gradientUnits="userSpaceOnUse">
<stop stop-color="#155CDE"/>
<stop offset="0.278" stop-color="#1F7FE5"/>
<stop offset="0.569" stop-color="#279CEB"/>
<stop offset="0.82" stop-color="#2CAFEF"/>
<stop offset="1" stop-color="#2EB5F0"/>
</linearGradient>
<linearGradient id="paint2_linear" x1="25.0001" y1="45.1633" x2="25.0001" y2="4.63519" gradientUnits="userSpaceOnUse">
<stop stop-color="#155CDE"/>
<stop offset="0.278" stop-color="#1F7FE5"/>
<stop offset="0.569" stop-color="#279CEB"/>
<stop offset="0.82" stop-color="#2CAFEF"/>
<stop offset="1" stop-color="#2EB5F0"/>
</linearGradient>
<linearGradient id="paint3_linear" x1="25" y1="28.9062" x2="25" y2="21.0938" gradientUnits="userSpaceOnUse">
<stop stop-color="#155CDE"/>
<stop offset="0.278" stop-color="#1F7FE5"/>
<stop offset="0.569" stop-color="#279CEB"/>
<stop offset="0.82" stop-color="#2CAFEF"/>
<stop offset="1" stop-color="#2EB5F0"/>
</linearGradient>
</defs>
</svg>
