<svg width="40" height="68" viewBox="0 0 40 68" fill="none" xmlns="http://www.w3.org/2000/svg">
<path d="M13 0C6.9375 0 2 5.77414 2 12.8639C2 16.7377 3.48438 20.2186 5.8125 22.5758C2.35156 24.7502 0 29.0169 0 33.914C0 38.2628 1.86719 42.1092 4.69531 44.439C1.86719 46.7687 0 50.6151 0 54.964C0 62.0538 4.9375 67.8279 11 67.8279C17.0625 67.8279 22 62.0538 22 54.964V25.7278H29C35.0625 25.7278 40 19.9537 40 12.8639C40 5.77414 35.0625 0 29 0H13ZM13 4.67779H29C32.8594 4.67779 36 8.35058 36 12.8639C36 17.3773 32.8594 21.05 29 21.05H13C9.14062 21.05 6 17.3773 6 12.8639C6 8.35058 9.14062 4.67779 13 4.67779ZM11 25.7278H18V42.1001H11C7.14062 42.1001 4 38.4273 4 33.914C4 29.4006 7.14062 25.7278 11 25.7278ZM30 25.7278C25.5781 25.7278 22 29.9123 22 35.0834C22 40.2546 25.5781 44.439 30 44.439C34.4219 44.439 38 40.2546 38 35.0834C38 29.9123 34.4219 25.7278 30 25.7278ZM11 46.7779H18V54.964C18 59.4773 14.8594 63.1501 11 63.1501C7.14062 63.1501 4 59.4773 4 54.964C4 50.4507 7.14062 46.7779 11 46.7779Z" fill="black"/>
</svg>
