<svg width="50" height="50" viewBox="0 0 50 50" fill="none" xmlns="http://www.w3.org/2000/svg">
<path d="M42.7082 5.20837H7.2915L10.4165 40.625L24.9998 44.7917L39.5832 40.625L42.7082 5.20837Z" fill="#0277BD"/>
<path d="M25 8.33337V41.5625L36.6667 38.2292L39.2708 8.33337H25Z" fill="#039BE5"/>
<path d="M34.4792 13.5416H25V17.7083H30.1042L29.7917 21.875H25V26.0416H29.5833L29.2708 30.7291L25 32.1875V36.5625L33.2292 33.8541L33.9583 21.875L34.4792 13.5416Z" fill="white"/>
<path d="M24.9998 13.5416V17.7083H15.729L15.4165 13.5416H24.9998ZM20.2082 21.875L20.4165 26.0416H24.9998V21.875H20.2082ZM20.6248 28.125H16.4582L16.7707 33.8541L24.9998 36.5625V32.1875L20.729 30.7291L20.6248 28.125Z" fill="#EEEEEE"/>
</svg>
