<svg width="50" height="50" viewBox="0 0 50 50" fill="none" xmlns="http://www.w3.org/2000/svg">
<path d="M6.25 43.75V6.25H43.75V43.75H6.25Z" fill="#FFD600"/>
<path d="M30.7686 34.3198C31.4894 35.4906 32.2727 36.6125 33.9321 36.6125C35.3258 36.6125 36.0571 35.9198 36.0571 34.9614C36.0571 33.8145 35.3008 33.4073 33.7675 32.7395L32.9269 32.3812C30.5008 31.352 28.8873 30.0625 28.8873 27.3385C28.8873 24.8281 30.8092 22.9177 33.8123 22.9177C35.9508 22.9177 37.4873 23.6583 38.5956 25.5979L35.9769 27.2718C35.4008 26.2427 34.7779 25.8375 33.8123 25.8375C32.8269 25.8375 32.2029 26.4593 32.2029 27.2718C32.2029 28.276 32.8279 28.6823 34.2706 29.3041L35.1113 29.6625C37.9706 30.8802 39.5831 32.1239 39.5831 34.9198C39.5831 37.9323 37.204 39.5833 34.0102 39.5833C30.8863 39.5833 29.1123 38.0156 28.1248 36.075L30.7686 34.3198ZM18.6998 34.4052C19.2269 35.3489 20.0279 36.075 21.18 36.075C22.2821 36.075 22.9165 35.6395 22.9165 33.9468V22.9166H26.3883V34.4802C26.3883 37.9875 24.354 39.5833 21.3831 39.5833C18.6988 39.5833 16.7613 37.7645 15.9717 36.075L18.6998 34.4052Z" fill="#000001"/>
</svg>
