<svg width="64" height="64" viewBox="0 0 64 64" fill="none" xmlns="http://www.w3.org/2000/svg">
<path d="M59.9405 0H4.06548C1.82143 0 0 1.82143 0 4.06548V59.9345C0 62.1786 1.82143 64 4.06548 64H59.9345C62.1786 64 64 62.1786 64 59.9405V4.06548C64 1.82143 62.1786 0 59.9405 0ZM35.0476 49.0417C35.0476 55.131 31.4762 57.9048 26.2619 57.9048C21.5476 57.9048 18.1488 54.744 16.7619 51.8095L21.5536 48.9107C22.4762 50.5476 23.881 51.8095 25.9048 51.8095C27.8393 51.8095 28.9524 51.0536 28.9524 48.1131V28.9524H35.0476V49.0417ZM48.2679 57.9048C42.869 57.9048 39.8036 55.1845 38.0952 51.8095L42.6667 48.7619C43.9107 50.7976 45.2679 52.744 48.1369 52.744C50.5476 52.744 51.8095 51.5417 51.8095 49.875C51.8095 47.8869 50.5 47.1786 47.8512 46.0179L46.3988 45.3929C42.2024 43.6071 39.4107 41.369 39.4107 36.631C39.4107 32.2738 42.7381 28.9524 47.9286 28.9524C51.625 28.9524 54.2798 30.2381 56.1964 33.6071L51.6726 36.5179C50.6726 34.7262 49.6012 34.0238 47.9286 34.0238C46.2262 34.0238 45.1488 35.1071 45.1488 36.5179C45.1488 38.2619 46.2262 38.9643 48.7202 40.0476L50.1726 40.6726C55.119 42.7857 57.9048 44.9464 57.9048 49.8036C57.9048 55.0357 53.7917 57.9048 48.2679 57.9048Z" fill="#FFD703"/>
</svg>
