<svg width="50" height="50" viewBox="0 0 50 50" fill="none" xmlns="http://www.w3.org/2000/svg">
<path d="M43.75 18.0208C43.75 39.375 25 45.8333 25 45.8333C25 45.8333 6.25 39.375 6.25 18.0208C6.25 15.4166 6.45833 13.2291 6.66667 11.4583C6.97917 8.85413 8.75 6.77079 11.25 6.14579C14.4792 5.20829 19.5833 4.16663 25 4.16663C30.4167 4.16663 35.5208 5.20829 38.8542 6.14579C41.3542 6.77079 43.125 8.95829 43.4375 11.4583C43.5417 13.2291 43.75 15.5208 43.75 18.0208Z" fill="#5D4037"/>
<path d="M25 7.29163C30.1042 7.29163 34.8958 8.33329 38.0208 9.16663C39.2708 9.47913 40.1042 10.5208 40.3125 11.875C40.5208 13.8541 40.625 15.9375 40.625 18.0208C40.625 34.2708 28.6458 40.8333 25 42.3958C21.3542 40.7291 9.375 34.1666 9.375 18.0208C9.375 15.9375 9.47917 13.8541 9.6875 11.875C9.79167 10.5208 10.7292 9.47913 11.9792 9.16663C15.1042 8.33329 19.8958 7.29163 25 7.29163ZM25 4.16663C19.5833 4.16663 14.4792 5.20829 11.1458 6.14579C8.75 6.77079 6.875 8.95829 6.66667 11.4583C6.45833 13.2291 6.25 15.5208 6.25 18.0208C6.25 39.375 25 45.8333 25 45.8333C25 45.8333 43.75 39.375 43.75 18.0208C43.75 15.4166 43.5417 13.2291 43.3333 11.4583C43.0208 8.85413 41.25 6.77079 38.75 6.14579C35.5208 5.20829 30.4167 4.16663 25 4.16663Z" fill="#4CAF50"/>
<path d="M23.9585 29.1666H26.0418V37.5H23.9585V29.1666Z" fill="#DCEDC8"/>
<path d="M25 10.4166C25 10.4166 18.75 15.625 18.75 23.9583C18.75 29.375 22.1875 32.8125 23.9583 34.375L25 31.25L26.0417 34.375C27.8125 32.8125 31.25 29.375 31.25 23.9583C31.25 15.625 25 10.4166 25 10.4166Z" fill="#4CAF50"/>
<path d="M25 10.4166C25 10.4166 18.75 15.625 18.75 23.9583C18.75 29.375 22.1875 32.8125 23.9583 34.375L25 31.25V10.4166Z" fill="#81C784"/>
</svg>
