<svg width="64" height="64" viewBox="0 0 64 64" fill="none" xmlns="http://www.w3.org/2000/svg">
<path d="M28.4231 23.3077C28.6346 23.875 28.7404 24.5769 28.7404 25.4038C28.7404 26.3942 28.625 27.2115 28.4038 27.8462C28.1827 28.4615 27.8846 28.9519 27.5192 29.2981C27.1442 29.6442 26.7212 29.8942 26.2404 30.0288C25.75 30.1827 25.2212 30.2596 24.6731 30.2596C24.5288 30.2596 24.2404 30.2404 23.8173 30.2019C23.5385 30.1731 23.3462 30.1442 23.2115 30.125V21.2019C23.6731 21.1058 24.25 21.0673 24.9135 21.0673C25.4231 21.0673 25.9231 21.1346 26.3942 21.2885C26.8462 21.4327 27.25 21.6635 27.5962 21.9808C27.9423 22.3077 28.2212 22.75 28.4231 23.3077ZM64 12V52C64 58.625 58.625 64 52 64H12C5.375 64 0 58.625 0 52V12C0 5.375 5.375 0 12 0H52C58.625 0 64 5.375 64 12ZM33.7981 29.9712C34.2981 28.7308 34.5481 27.2115 34.5481 25.4423C34.5481 23.4904 34.25 21.875 33.6538 20.6442C33.0577 19.4135 32.2692 18.4327 31.3077 17.75C30.3558 17.0673 29.2596 16.6058 28.0577 16.375C25.7692 15.9423 23.3942 15.9615 21.0192 16.2212C19.8942 16.3365 18.8365 16.5 17.875 16.7115C17.7308 16.75 17.6346 16.875 17.6346 17.0096V44.3077C17.6346 44.4808 17.7692 44.6154 17.9423 44.6154H22.9038C23.0673 44.6154 23.2115 44.4808 23.2115 44.3077V35.1731C23.2692 35.1827 23.3365 35.1923 23.4038 35.2019C23.6538 35.2308 23.9135 35.25 24.1827 35.2596C24.4519 35.2692 24.7115 35.2788 24.9519 35.2788H25.4615C26.6154 35.2788 27.7596 35.1058 28.8462 34.75C29.9519 34.4039 30.9327 33.8173 31.7788 33.0288C32.625 32.2404 33.2981 31.2115 33.7981 29.9712ZM47.3462 38.7981C47.3462 37.6731 47.1635 36.7115 46.7885 35.9423C46.4135 35.1731 45.9327 34.5192 45.3654 33.9808C44.7885 33.4519 44.1827 33.0096 43.5481 32.6538C42.9327 32.3173 42.3462 31.9904 41.7981 31.6731C41.2692 31.375 40.8269 31.0577 40.5 30.75C40.2115 30.4808 40.0673 30.1538 40.0673 29.7404C40.0673 29.1346 40.25 28.4327 41.6827 28.4327C42.3365 28.4327 43.0096 28.5288 43.6923 28.7115C44.375 28.9038 44.9712 29.1058 45.4615 29.3077C45.5481 29.3462 45.6346 29.3462 45.7115 29.3077C45.7981 29.2692 45.8558 29.2019 45.875 29.1154L46.9808 25.4904C47.0192 25.3558 46.9712 25.2115 46.8462 25.1442C46.2212 24.7596 45.3654 24.4327 44.3173 24.1827C43.2788 23.9231 42.1538 23.7981 40.9808 23.7981C38.9615 23.7981 37.4039 24.3269 36.3462 25.3846C35.2981 26.4327 34.7596 27.9423 34.7596 29.8558C34.7596 30.9712 34.9519 31.9231 35.3269 32.6731C35.6923 33.4135 36.1731 34.0481 36.75 34.5769C37.3269 35.0865 37.9327 35.5288 38.5577 35.875C39.1731 36.2115 39.7596 36.5481 40.3077 36.875C40.8365 37.1827 41.2692 37.5288 41.5962 37.875C41.9038 38.2019 42.0481 38.5962 42.0481 39.0673C42.0481 39.5673 41.8942 39.9231 41.5865 40.1346C41.25 40.375 40.7981 40.4904 40.2692 40.4904C39.5096 40.4904 38.7788 40.375 38.0962 40.1538C37.4039 39.9231 36.7788 39.6538 36.2404 39.3558C36.1635 39.3077 36.0673 39.2981 35.9808 39.3269C35.8942 39.3654 35.8269 39.4327 35.7981 39.5192L34.5 43.2981C34.4519 43.4327 34.5096 43.5769 34.625 43.6538C35.2788 44.0962 36.1538 44.4519 37.2212 44.7212C38.2788 44.9904 39.375 45.125 40.4615 45.125C42.7212 45.125 44.4519 44.5385 45.6058 43.3846C46.7596 42.2212 47.3462 40.6827 47.3462 38.7981Z" fill="#FFB800"/>
</svg>
