<svg width="64" height="64" viewBox="0 0 64 64" fill="none" xmlns="http://www.w3.org/2000/svg">
<path d="M64 0H0V64H64V0Z" fill="#FF7A00"/>
<path d="M25.9203 6.40002C20.6546 6.40002 16.366 10.6886 16.366 15.9543C16.366 18.8314 17.6553 21.4168 19.6775 23.1675C16.6714 24.7825 14.6289 27.9514 14.6289 31.5886C14.6289 34.8186 16.2507 37.6754 18.7071 39.4057C16.2507 41.1361 14.6289 43.9929 14.6289 47.2229C14.6289 52.4886 18.9175 56.7771 24.1832 56.7771C29.4489 56.7771 33.7375 52.4886 33.7375 47.2229V25.5086H39.8175C45.0832 25.5086 49.3718 21.22 49.3718 15.9543C49.3718 10.6886 45.0832 6.40002 39.8175 6.40002H25.9203ZM25.9203 9.87431H39.8175C43.1696 9.87431 45.8975 12.6022 45.8975 15.9543C45.8975 19.3064 43.1696 22.0343 39.8175 22.0343H25.9203C22.5682 22.0343 19.8403 19.3064 19.8403 15.9543C19.8403 12.6022 22.5682 9.87431 25.9203 9.87431ZM24.1832 25.5086H30.2632V37.6686H24.1832C20.831 37.6686 18.1032 34.9407 18.1032 31.5886C18.1032 28.2364 20.831 25.5086 24.1832 25.5086ZM40.6861 25.5086C36.8453 25.5086 33.7375 28.6164 33.7375 32.4572C33.7375 36.2979 36.8453 39.4057 40.6861 39.4057C44.5268 39.4057 47.6346 36.2979 47.6346 32.4572C47.6346 28.6164 44.5268 25.5086 40.6861 25.5086ZM24.1832 41.1429H30.2632V47.2229C30.2632 50.575 27.5353 53.3029 24.1832 53.3029C20.831 53.3029 18.1032 50.575 18.1032 47.2229C18.1032 43.8707 20.831 41.1429 24.1832 41.1429Z" fill="#252734"/>
</svg>
