<svg width="64" height="64" viewBox="0 0 64 64" fill="none" xmlns="http://www.w3.org/2000/svg">
<path d="M43.4861 29.2639C42.4028 29.2639 41.6111 29.7083 41.1111 30.5833C40.6111 31.4583 40.3611 33.0139 40.3611 35.25V36.8056C40.3611 39.0278 40.5972 40.5833 41.0694 41.4583C41.5417 42.3472 42.3333 42.7917 43.4722 42.7917C44.6389 42.7917 45.5139 42.2639 46.1111 41.2222V30.9306C45.5278 29.8194 44.6528 29.2639 43.4861 29.2639ZM56.8889 0H7.11111C3.18055 0 0 3.18055 0 7.11111V56.8889C0 60.8194 3.18055 64 7.11111 64H56.8889C60.8194 64 64 60.8194 64 56.8889V7.11111C64 3.18055 60.8194 0 56.8889 0ZM25.8611 47.2917L21.6944 36.6806L17.5556 47.2917H10.4444L17.7361 32L10.5972 16.9583H17.6111L21.6944 27.375L25.7778 16.9583H32.8056L25.6806 32L32.9722 47.2917H25.8611ZM52.0556 47.2917H46.6944L46.4306 45C45.2222 46.8056 43.6667 47.7083 41.7639 47.7083C39.4028 47.7083 37.5972 46.8056 36.3472 45C35.1111 43.1944 34.4722 40.5417 34.4444 37.0417V35.3333C34.4444 31.6389 35.0694 28.875 36.3194 27.0556C37.5694 25.2361 39.3889 24.3333 41.7778 24.3333C43.5139 24.3333 44.9583 25.0833 46.1111 26.5833V15.2917H52.0556V47.2917Z" fill="#00ABFF" fill-opacity="0.89"/>
</svg>
