<svg width="85" height="64" viewBox="0 0 85 64" fill="none" xmlns="http://www.w3.org/2000/svg">
<path d="M85 0H0V63.9531H85V0Z" fill="#37FF33"/>
<path d="M33.0892 25.3825L25.9331 29.0522C25.6648 29.1887 25.5 29.4428 25.5 29.7172V37.0607C25.5 37.3351 25.6648 37.5878 25.9331 37.7257L33.0906 41.3981C33.3575 41.5346 33.6885 41.5346 33.9554 41.3981L41.1114 37.7257C41.3769 37.5878 41.5416 37.3351 41.5416 37.0607V29.7172C41.5416 29.4428 41.3769 29.1901 41.1085 29.0522L33.9539 25.3825C33.8198 25.3136 33.6696 25.2798 33.5208 25.2798C33.3706 25.2798 33.2219 25.3136 33.0877 25.3825H33.0892ZM69.9077 31.9934L68.7147 32.6043C68.6695 32.6273 68.6433 32.6692 68.6433 32.7152V33.9397C68.6433 33.9857 68.671 34.0276 68.7147 34.0506L69.9077 34.6629C69.9529 34.6859 70.0068 34.6859 70.052 34.6629L71.2449 34.0506C71.2887 34.0276 71.3164 33.9857 71.3164 33.9397V32.7152C71.3164 32.6692 71.2887 32.6273 71.2435 32.6043L70.0506 31.9934C70.0287 31.9812 70.0039 31.9758 69.9791 31.9758C69.9543 31.9758 69.9295 31.9812 69.9077 31.9934Z" fill="#388E3C"/>
<path d="M60.1365 17.6002L56.6526 15.7984C56.5432 15.7417 56.409 15.743 56.3011 15.8025C56.1932 15.862 56.1261 15.9687 56.1261 16.085L56.1246 26.9687L52.9119 25.321C52.7778 25.252 52.6276 25.2182 52.4788 25.2182C52.3301 25.2182 52.1799 25.252 52.0457 25.321H52.0472L44.8911 28.9908C44.6228 29.1273 44.458 29.3814 44.458 29.6544V36.9981C44.458 37.2725 44.6228 37.5252 44.8911 37.6631L52.0486 41.3356C52.3155 41.4721 52.6465 41.4721 52.9134 41.3356L60.0694 37.6631C60.3348 37.5266 60.4996 37.2725 60.4996 36.9981V18.1733C60.4996 17.9354 60.3596 17.7164 60.1365 17.6002ZM55.9292 35.299L52.6772 36.9683C52.5561 37.0305 52.4059 37.0305 52.2849 36.9683L49.0313 35.299C48.9074 35.2368 48.833 35.1206 48.833 34.9962V31.6576C48.833 31.5333 48.9074 31.4184 49.0299 31.3548L52.2834 29.6869H52.2819C52.3432 29.6558 52.4103 29.6409 52.4788 29.6409C52.5474 29.6409 52.6144 29.6571 52.6757 29.6869L55.9278 31.3548C56.0503 31.4184 56.1246 31.5346 56.1246 31.659V34.9976C56.1246 35.1206 56.0503 35.2368 55.9292 35.299Z" fill="#333646"/>
<path d="M33.0891 25.3825L25.5 37.0607C25.5 37.3351 25.6648 37.5878 25.9331 37.7257L33.0906 41.3981C33.3575 41.5346 33.6885 41.5346 33.9554 41.3981L41.5416 29.7172C41.5416 29.4428 41.3768 29.1901 41.1085 29.0522L33.9539 25.3825C33.8198 25.3136 33.6696 25.2798 33.5208 25.2798C33.3706 25.2798 33.2219 25.3136 33.0877 25.3825" fill="#2E7D32"/>
<path d="M33.0891 25.3825L25.9331 29.0522C25.6648 29.1887 25.5 29.4428 25.5 29.7172L33.0891 41.3981C33.356 41.5346 33.6871 41.5346 33.9539 41.3981L41.11 37.7257C41.3768 37.5878 41.5416 37.3351 41.5416 37.0607L33.9539 25.3825C33.8198 25.3136 33.6696 25.2798 33.5208 25.2798C33.3706 25.2798 33.2219 25.3136 33.0877 25.3825" fill="#4CAF50"/>
<path d="M77.5669 28.9903L70.4123 25.3205C70.2781 25.2516 70.1279 25.2178 69.9792 25.2178C69.8304 25.2178 69.6802 25.2516 69.546 25.3205H69.5475L62.3915 28.9903C62.1246 29.1268 61.9583 29.3864 61.9583 29.6702V36.9841C61.9583 37.2666 62.1246 37.5275 62.3915 37.664L69.549 41.3365C69.8173 41.4744 70.1454 41.4744 70.4138 41.3365L73.714 39.6429C74.0158 39.4874 74.0144 39.086 73.711 38.9319L66.5302 35.2999C66.4092 35.2364 66.3333 35.1188 66.3333 34.9918V31.6585C66.3333 31.5342 66.4063 31.4193 66.5229 31.3598L69.7823 29.6891H69.7808C69.8421 29.658 69.9092 29.6432 69.9777 29.6432C70.0463 29.6432 70.1133 29.6594 70.1746 29.6891L73.434 31.3612C73.5506 31.4206 73.6235 31.5355 73.6235 31.6599V34.3794C73.6235 34.4957 73.6906 34.6038 73.8 34.662C73.9094 34.7187 74.0435 34.7187 74.1529 34.6606L77.65 32.7777C77.8658 32.6615 78 32.4466 78 32.2141V29.6729C78 29.3877 77.8337 29.1268 77.5669 28.9903ZM23.6085 28.9903L16.454 25.3205C16.3198 25.2516 16.1696 25.2178 16.0208 25.2178C15.8721 25.2178 15.7219 25.2516 15.5877 25.3205H15.5892L8.43312 28.9903C8.16625 29.1268 8 29.3864 8 29.6702V39.7605C8 39.8767 8.06708 39.9849 8.17646 40.043C8.28583 40.0998 8.42 40.0998 8.52938 40.0416L12.0265 38.1587C12.2423 38.0425 12.375 37.8276 12.375 37.5951V31.6572C12.375 31.5328 12.4479 31.4179 12.5646 31.3584L15.824 29.6878C15.8852 29.6567 15.9523 29.6418 16.0208 29.6418C16.0894 29.6418 16.1565 29.658 16.2177 29.6878L19.4771 31.3598C19.5938 31.4193 19.6667 31.5342 19.6667 31.6585V37.5964C19.6667 37.8289 19.7994 38.0439 20.0167 38.1601L23.5138 40.043C23.6231 40.1011 23.7573 40.1011 23.8667 40.0443C23.9746 39.9849 24.0417 39.8767 24.0417 39.7605V29.6716C24.0417 29.3877 23.8754 29.1268 23.6085 28.9903Z" fill="#333646"/>
</svg>
