<svg width="64" height="64" viewBox="0 0 64 64" fill="none" xmlns="http://www.w3.org/2000/svg">
<g clip-path="url(#clip0)">
<path d="M62.1719 0.914307H-1.82812V64.9143H62.1719V0.914307Z" fill="#00C2FF"/>
<path d="M47.5804 6.41206C47.3651 6.44864 47.1636 6.56672 47.0271 6.75872L46.0387 8.15205C45.7657 8.53691 45.8564 9.06899 46.2404 9.34205C46.3906 9.44872 46.5631 9.50039 46.7337 9.50039C47.0008 9.50039 47.2631 9.3742 47.4304 9.14039L48.4187 7.74872C48.6918 7.36387 48.6027 6.83179 48.2187 6.55872C48.0259 6.42176 47.7956 6.37547 47.5804 6.41206ZM22.2521 9.72039C21.1536 9.68667 20.1165 9.90816 19.2004 10.4371C17.7347 11.2833 16.7938 12.7945 16.3204 14.6421C15.847 16.4896 15.8065 18.707 16.1337 21.1854C16.241 21.9978 16.4023 22.8477 16.5887 23.7121C15.7479 23.9826 14.9318 24.2657 14.1754 24.5787C11.8654 25.5346 9.96539 26.6783 8.60206 28.0121C7.23873 29.3458 6.40039 30.9162 6.40039 32.6087C6.40039 34.3012 7.23873 35.8716 8.60206 37.2054C9.96539 38.5392 11.8654 39.6829 14.1754 40.6387C14.9318 40.9517 15.7479 41.2348 16.5887 41.5054C16.4024 42.3697 16.241 43.218 16.1337 44.0304C15.8065 46.5088 15.847 48.7262 16.3204 50.5737C16.7938 52.4213 17.7347 53.9325 19.2004 54.7787C20.6661 55.625 22.4453 55.6842 24.2821 55.1704C26.1188 54.6566 28.0593 53.583 30.0421 52.0604C30.6917 51.5615 31.3453 50.997 32.0004 50.4037C32.6552 50.9967 33.3093 51.5617 33.9587 52.0604C35.9415 53.583 37.882 54.6566 39.7187 55.1704C41.5555 55.6842 43.3347 55.625 44.8004 54.7787C46.2661 53.9325 47.207 52.4213 47.6804 50.5737C48.1538 48.7262 48.1943 46.5088 47.8671 44.0304C47.76 43.2191 47.5981 42.3701 47.4121 41.5071C48.2531 41.2365 49.0688 40.9518 49.8254 40.6387C52.1354 39.6829 54.0354 38.5392 55.3987 37.2054C56.7621 35.8716 57.6004 34.3012 57.6004 32.6087C57.6004 30.9162 56.7621 29.3458 55.3987 28.0121C54.0354 26.6783 52.1354 25.5346 49.8254 24.5787C49.0688 24.2657 48.2531 23.981 47.4121 23.7104C47.5981 22.8471 47.7599 21.9985 47.8671 21.1871C48.1943 18.7086 48.1538 16.4913 47.6804 14.6437C47.207 12.7962 46.2661 11.285 44.8004 10.4387C43.3347 9.59248 41.5555 9.53326 39.7187 10.0471C37.882 10.5608 35.9415 11.6345 33.9587 13.1571C33.3093 13.6557 32.6552 14.2207 32.0004 14.8137C31.3453 14.2204 30.6917 13.6543 30.0421 13.1554C28.0593 11.6328 26.1188 10.5592 24.2821 10.0454C23.5933 9.85272 22.9112 9.74062 22.2521 9.72039ZM50.6904 9.91872C50.58 9.92787 50.4695 9.95911 50.3654 10.0137L48.8537 10.8054C48.4364 11.0247 48.2744 11.5423 48.4937 11.9587C48.6465 12.2506 48.9432 12.4154 49.2504 12.4154C49.3835 12.4154 49.5191 12.3844 49.6454 12.3187L51.1571 11.5254C51.5743 11.3061 51.7364 10.7901 51.5171 10.3737C51.3526 10.0601 51.0215 9.89128 50.6904 9.91872ZM22.2121 11.4221C22.7085 11.4395 23.2455 11.5291 23.8221 11.6904C25.3595 12.1205 27.1392 13.0812 29.0004 14.5104C29.578 14.9539 30.1663 15.4571 30.7554 15.9871C29.0671 17.6633 27.3923 19.6381 25.7871 21.8471C23.0715 22.1328 20.5246 22.5965 18.2287 23.2204C18.0642 22.4451 17.9224 21.6842 17.8271 20.9621C17.5199 18.6357 17.5775 16.6135 17.9737 15.0671C18.37 13.5206 19.0706 12.483 20.0537 11.9154C20.6682 11.5606 21.3847 11.3929 22.2121 11.4221ZM41.7871 11.4237C42.6144 11.3946 43.3326 11.5623 43.9471 11.9171C44.9302 12.4847 45.6308 13.5206 46.0271 15.0671C46.4233 16.6135 46.4792 18.6373 46.1721 20.9637C46.0767 21.6858 45.9365 22.4452 45.7721 23.2204C43.4762 22.5965 40.9293 22.1328 38.2137 21.8471C36.6086 19.6382 34.9336 17.6651 33.2454 15.9887C33.8344 15.4588 34.4211 14.9556 34.9987 14.5121C36.8599 13.0829 38.6396 12.1205 40.1771 11.6904C40.7536 11.5291 41.2906 11.4412 41.7871 11.4237ZM51.9871 14.2704L50.2987 14.5237C49.8328 14.5937 49.5121 15.0295 49.5821 15.4954C49.6461 15.9195 50.0098 16.2221 50.4254 16.2221C50.4672 16.2221 50.5085 16.218 50.5521 16.2121L52.2404 15.9587C52.7063 15.8887 53.0287 15.4546 52.9587 14.9887C52.8887 14.5237 52.4547 14.2089 51.9871 14.2704ZM32.0004 17.1604C33.3218 18.4702 34.6482 19.9784 35.9421 21.6554C34.6542 21.5715 33.3447 21.5154 32.0004 21.5154C30.6555 21.5154 29.3454 21.5715 28.0571 21.6554C29.3512 19.978 30.6787 18.4704 32.0004 17.1604ZM50.6304 18.6187C50.1619 18.5923 49.7552 18.9502 49.7287 19.4204C49.7006 19.8914 50.061 20.2956 50.5321 20.3221L52.2354 20.4204C52.2525 20.4212 52.2683 20.4221 52.2854 20.4221C52.7334 20.4221 53.1089 20.0702 53.1354 19.6171C53.1635 19.146 52.8048 18.7435 52.3337 18.7171L50.6304 18.6187ZM32.0004 23.2221C33.8154 23.2221 35.5786 23.3111 37.2787 23.4671C38.2637 24.8612 39.2214 26.3438 40.1287 27.9154C41.0364 29.4876 41.842 31.0581 42.5571 32.6087C41.842 34.1594 41.0364 35.7299 40.1287 37.3021C39.2214 38.8736 38.2637 40.3563 37.2787 41.7504C35.5786 41.9064 33.8154 41.9954 32.0004 41.9954C30.1854 41.9954 28.4221 41.9064 26.7221 41.7504C25.7367 40.3558 24.7781 38.8743 23.8704 37.3021C22.9627 35.7299 22.1588 34.1577 21.4437 32.6071C22.1584 31.0575 22.9633 29.4865 23.8704 27.9154C24.7781 26.3432 25.7367 24.8617 26.7221 23.4671C28.4221 23.3111 30.1854 23.2221 32.0004 23.2221ZM24.4854 23.7171C23.7685 24.7908 23.0645 25.8973 22.3921 27.0621C21.7201 28.2259 21.1149 29.3885 20.5437 30.5454C19.7383 28.5863 19.0957 26.6847 18.6221 24.8854C20.4173 24.3959 22.3858 23.9991 24.4854 23.7171ZM39.5137 23.7171C41.6139 23.9991 43.583 24.3957 45.3787 24.8854C44.905 26.6848 44.2625 28.5879 43.4571 30.5471C42.8855 29.3893 42.2795 28.2268 41.6071 27.0621C40.9349 25.8978 40.2303 24.7905 39.5137 23.7171ZM16.9837 25.3771C17.5914 27.6773 18.4633 30.1142 19.5737 32.6087C18.4633 35.1034 17.5914 37.5401 16.9837 39.8404C16.2303 39.5953 15.5016 39.3388 14.8287 39.0604C12.6604 38.1632 10.9366 37.1018 9.79539 35.9854C8.65423 34.869 8.10706 33.7439 8.10706 32.6087C8.10706 31.4735 8.65423 30.3485 9.79539 29.2321C10.9366 28.1156 12.6604 27.0543 14.8287 26.1571C15.5016 25.8786 16.2303 25.6222 16.9837 25.3771ZM47.0154 25.3771C47.7694 25.6223 48.4988 25.8785 49.1721 26.1571C51.3403 27.0543 53.0642 28.1156 54.2054 29.2321C55.3466 30.3485 55.8937 31.4735 55.8937 32.6087C55.8937 33.7439 55.3466 34.869 54.2054 35.9854C53.0642 37.1018 51.3403 38.1632 49.1721 39.0604C48.4992 39.3388 47.7705 39.5953 47.0171 39.8404C46.4095 37.54 45.5358 35.1035 44.4254 32.6087C45.5355 30.1146 46.4078 27.6769 47.0154 25.3771ZM32.0004 26.6354C28.7115 26.6354 26.0271 29.3198 26.0271 32.6087C26.0271 35.8976 28.7115 38.5821 32.0004 38.5821C35.2893 38.5821 37.9737 35.8976 37.9737 32.6087C37.9737 29.3198 35.2893 26.6354 32.0004 26.6354ZM32.0004 28.3421C34.3669 28.3421 36.2671 30.2422 36.2671 32.6087C36.2671 34.9752 34.3669 36.8754 32.0004 36.8754C29.6339 36.8754 27.7337 34.9752 27.7337 32.6087C27.7337 30.2422 29.6339 28.3421 32.0004 28.3421ZM43.4571 34.6704C44.2625 36.6295 44.905 38.5327 45.3787 40.3321C43.583 40.8217 41.6139 41.2184 39.5137 41.5004C40.2303 40.4269 40.9349 39.3197 41.6071 38.1554C42.2795 36.9906 42.8855 35.8281 43.4571 34.6704ZM20.5437 34.6721C21.1148 35.8287 21.7202 36.9917 22.3921 38.1554C23.0645 39.3201 23.7685 40.4266 24.4854 41.5004C22.3858 41.2184 20.4173 40.8216 18.6221 40.3321C19.0957 38.5327 19.7383 36.6311 20.5437 34.6721ZM18.2287 41.9971C20.5246 42.621 23.0715 43.0847 25.7871 43.3704C27.3923 45.5793 29.0671 47.5541 30.7554 49.2304C30.1663 49.7604 29.578 50.2618 29.0004 50.7054C27.1392 52.1346 25.3595 53.097 23.8221 53.5271C22.2846 53.9571 21.0369 53.8697 20.0537 53.3021C19.0706 52.7344 18.3683 51.6969 17.9721 50.1504C17.5758 48.6039 17.5199 46.5801 17.8271 44.2537C17.9224 43.5316 18.0642 42.7724 18.2287 41.9971ZM45.7721 41.9971C45.9365 42.7723 46.0767 43.5316 46.1721 44.2537C46.4792 46.5801 46.4233 48.6039 46.0271 50.1504C45.6308 51.6969 44.9302 52.7328 43.9471 53.3004C42.9639 53.868 41.7162 53.9571 40.1787 53.5271C38.6413 53.097 36.8599 52.1346 34.9987 50.7054C34.4211 50.2618 33.8344 49.7587 33.2454 49.2287C34.9336 47.5523 36.6086 45.5793 38.2137 43.3704C40.9293 43.0847 43.4762 42.621 45.7721 41.9971ZM12.0421 42.6071C11.5719 42.5439 11.1452 42.8728 11.0837 43.3404C11.0206 43.808 11.3494 44.2364 11.8171 44.2987L13.5087 44.5237C13.5471 44.5288 13.5845 44.5321 13.6221 44.5321C14.0436 44.5321 14.4107 44.2188 14.4671 43.7904C14.5302 43.3228 14.2014 42.8943 13.7337 42.8321L12.0421 42.6071ZM28.0571 43.562C29.3454 43.646 30.6555 43.7021 32.0004 43.7021C33.3447 43.7021 34.6542 43.6459 35.9421 43.562C34.6482 45.2391 33.3218 46.7472 32.0004 48.0571C30.6788 46.747 29.3511 45.2394 28.0571 43.562ZM13.3637 46.9604L11.6587 47.0187C11.1868 47.0341 10.8175 47.4277 10.8337 47.8987C10.8491 48.3604 11.228 48.7237 11.6854 48.7237C11.6956 48.7237 11.7069 48.7246 11.7154 48.7237L13.4204 48.6654C13.8923 48.65 14.2616 48.2564 14.2454 47.7854C14.23 47.3135 13.8339 46.9288 13.3637 46.9604ZM14.1021 50.9654C13.9917 50.9541 13.8785 50.965 13.7654 51.0004L12.1321 51.4987C11.6815 51.6361 11.428 52.1132 11.5654 52.5637C11.6772 52.9315 12.016 53.1687 12.3821 53.1687C12.464 53.1687 12.5468 53.156 12.6304 53.1304L14.2637 52.632C14.7143 52.4947 14.9686 52.0176 14.8304 51.5671C14.728 51.2291 14.4332 50.9992 14.1021 50.9654ZM15.9104 54.4137C15.6927 54.3974 15.4687 54.4626 15.2904 54.6154L13.9954 55.7287C13.6378 56.0351 13.5974 56.5745 13.9037 56.932C14.0727 57.1292 14.3123 57.2287 14.5521 57.2287C14.7492 57.2287 14.9466 57.1603 15.1071 57.022L16.4021 55.9104C16.7596 55.604 16.8001 55.0646 16.4937 54.7071C16.3397 54.5283 16.1281 54.43 15.9104 54.4137Z" fill="#252734"/>
</g>
<defs>
<clipPath id="clip0">
<rect width="64" height="64" fill="white"/>
</clipPath>
</defs>
</svg>
