<svg width="50" height="59" viewBox="0 0 50 59" fill="none" xmlns="http://www.w3.org/2000/svg">
<path d="M30.5309 0.0118478C30.411 0.0326157 30.2911 0.0741515 30.1757 0.136455C29.199 0.70238 28.0891 2.38458 27.876 2.71687C27.8626 2.73764 27.8493 2.7584 27.8404 2.77917C26.7438 4.7002 26.1578 6.94833 26.1356 9.28991C26.1223 11.0448 26.4153 12.7841 27.0102 14.4611C28.3954 18.3499 31.2723 21.5689 34.6953 23.0746C34.8107 23.1213 34.9217 23.1681 35.1215 23.2511C35.1393 23.2615 35.308 23.3238 35.3346 23.329L35.4589 23.3809C35.6365 23.4484 35.8186 23.5159 35.9961 23.5575C36.8974 23.7703 37.7765 23.8897 38.6022 23.9209C38.7443 23.9209 38.8864 23.9261 39.0285 23.9261C45.2573 23.9261 47.6725 18.786 48.4761 17.0727C48.556 16.9065 48.6137 16.7715 48.667 16.6885C48.667 16.6833 48.667 16.6833 48.6715 16.6781C49.0222 16.0706 48.889 15.2451 48.3696 14.8297C47.8546 14.4196 47.1486 14.5753 46.7935 15.1828H46.789C45.1286 18.0436 42.2872 18.9106 38.3492 17.7684C38.0562 17.6853 37.7365 17.5555 37.4524 17.4309C37.0794 17.2752 36.7065 17.0934 36.3602 16.8962C35.672 16.4964 35.0238 16.0187 34.4378 15.4891C30.9749 12.348 29.6207 5.81129 31.6452 2.03672C31.9161 1.5331 31.8672 0.878907 31.5254 0.437589C31.2679 0.105303 30.8949 -0.0452643 30.5309 0.0118478ZM20.4617 2.65975C20.2042 2.65456 19.9422 2.75321 19.7291 2.96089C18.011 4.59636 16.2528 7.27542 16.1774 7.38445C16.1685 7.40522 16.1596 7.4208 16.1463 7.44157C13.0385 12.7322 12.8032 20.2606 15.5514 26.6207C15.982 27.628 16.4704 28.5885 16.9898 29.4711L17.1452 29.7307C17.5847 30.4836 18.0776 31.335 18.708 31.9996C18.9255 32.2904 19.1608 32.5707 19.3917 32.8407L19.5027 32.9757L19.5959 33.0847C19.8312 33.3495 20.071 33.6195 20.3196 33.8791H20.324C20.3418 33.9103 20.3684 33.931 20.3906 33.957C20.6703 34.2477 20.9545 34.5229 21.3318 34.8708L21.434 34.959C21.727 35.2342 22.0244 35.4938 22.3308 35.7482C22.3619 35.7742 22.3929 35.8001 22.424 35.8261C22.5306 35.9092 22.6371 35.987 22.7437 36.0753L22.8502 36.1584L22.9745 36.2518C23.201 36.4284 23.4229 36.5893 23.7382 36.8022C23.9424 36.9476 24.1599 37.0929 24.302 37.176C24.3642 37.2175 24.4308 37.2591 24.5861 37.3577L24.9324 37.5706C24.9502 37.581 25.0301 37.6225 25.0479 37.6329C25.2743 37.7679 25.5096 37.8977 25.7449 38.0223L26.1045 38.2092C26.3398 38.3286 26.5796 38.4429 26.8726 38.5727L27.0058 38.6298C27.0147 38.6402 27.1256 38.6869 27.1345 38.6921C27.3476 38.7803 27.5652 38.8686 27.7827 38.9517L28.28 39.1438C28.5286 39.2424 28.8172 39.3566 29.1324 39.4189C30.6818 39.7201 32.1869 39.8758 33.612 39.8758C33.7807 39.8758 33.9494 39.8706 34.1137 39.8706C46.6603 39.5487 49.9235 27.0828 49.9545 26.9582C50.1099 26.33 49.8569 25.6602 49.3507 25.3798C48.8446 25.0995 48.2408 25.2968 47.9256 25.8367C44.7468 31.2675 38.7354 33.5624 32.6131 31.6725C32.329 31.5894 32.0537 31.496 31.7118 31.3662C31.6541 31.3454 31.6053 31.3247 31.5121 31.2831C31.3123 31.2104 31.1169 31.1326 30.8949 31.0339L30.5797 30.8937C30.3977 30.8106 30.2157 30.7276 29.9937 30.6134L29.8472 30.5355C29.5764 30.4005 29.3144 30.2499 29.0791 30.1149L28.4309 29.7203C28.2844 29.6373 28.1557 29.5438 27.9559 29.4036L27.8449 29.3309L27.7339 29.2531C27.5696 29.1388 27.4053 29.0194 27.2544 28.8948L27.1478 28.8169C27.139 28.8117 27.0502 28.7391 27.0413 28.7287C26.9081 28.63 26.7793 28.5314 26.655 28.4379C26.3798 28.2095 26.109 27.9706 25.7937 27.6799L25.6694 27.5605C22.7392 24.8243 20.5727 21.1691 19.556 17.2492C18.6103 13.6512 19.3118 8.94205 21.434 4.65347C21.7092 4.09793 21.6071 3.39182 21.1853 2.97646C20.9767 2.76879 20.7192 2.65975 20.4617 2.65975ZM7.95506 6.64719C7.68424 6.64719 7.40898 6.76142 7.19144 6.98986C5.02043 9.26914 3.3955 12.2234 3.21791 12.5609C-1.426 20.4682 -0.529184 32.7576 2.65851 40.2704C2.72067 40.4262 2.78726 40.5768 2.85386 40.7273L2.89826 40.8104C2.95597 40.961 3.02257 41.1167 3.04477 41.1479C3.08028 41.2465 3.13356 41.3556 3.15576 41.3867C3.20903 41.5165 3.26231 41.6307 3.35998 41.828L3.72404 42.5601C3.77731 42.6587 3.83059 42.7626 3.84835 42.7989C3.91938 42.9339 3.99486 43.0741 4.07033 43.2143L4.24792 43.5466C4.3012 43.6452 4.35448 43.7335 4.38999 43.7854C4.56758 44.1073 4.74517 44.4292 4.94051 44.7355C4.94939 44.7511 4.95827 44.7615 4.96715 44.7719L5.03819 44.8861C5.19802 45.1561 5.36228 45.4157 5.50879 45.6286L6.15699 46.5891C6.16587 46.5995 6.2369 46.6981 6.24134 46.7085L6.33458 46.8331C6.52992 47.1135 6.73859 47.3938 6.94725 47.6638C6.97833 47.7053 7.00941 47.7417 7.04049 47.7832C7.24027 48.0376 7.4445 48.292 7.6576 48.5568L7.86183 48.7853C8.03054 48.993 8.19925 49.1954 8.37683 49.3875C8.37683 49.3927 8.46119 49.4862 8.46119 49.4862L8.63877 49.6783C8.85188 49.9171 9.07386 50.156 9.24257 50.3221C9.25145 50.3377 9.41128 50.4986 9.4246 50.509C9.63327 50.7271 9.84193 50.9348 10.055 51.1372L11.1428 52.1445C11.3248 52.3002 11.5113 52.456 11.7244 52.6377C11.7954 52.7 11.8709 52.7623 11.9463 52.8194C11.9774 52.8506 12.0129 52.8817 12.0351 52.8973L12.852 53.5359C13.1495 53.7644 13.447 53.9772 13.811 54.2317L14.0064 54.3615C14.2328 54.5172 14.4636 54.673 14.6812 54.808C14.8099 54.891 14.9387 54.9637 15.0497 55.0312C15.2051 55.1299 15.3738 55.2389 15.6313 55.3843C15.6535 55.3999 15.8355 55.5037 15.8577 55.5141C16.1152 55.6646 16.3772 55.8048 16.7057 55.9762C16.7057 55.9814 16.8122 56.0385 16.8122 56.0385C17.1141 56.189 17.4072 56.3344 17.7934 56.5161C17.8556 56.5473 17.9177 56.5732 17.931 56.5784C18.2063 56.703 18.4949 56.8276 18.7302 56.9263C18.7524 56.9367 18.8723 56.9938 18.8945 57.0042C19.2097 57.1288 19.5205 57.2482 19.92 57.3936C19.9866 57.4195 20.0577 57.4455 20.0665 57.4455L20.293 57.5286C20.5682 57.6272 20.8435 57.731 21.1409 57.7985C23.2542 58.2502 25.3187 58.4839 27.2722 58.4839H27.2766C43.5569 58.4839 48.7425 43.1624 48.7958 43.0066C48.9956 42.3888 48.778 41.693 48.2808 41.3711C47.7924 41.0544 47.1708 41.205 46.8245 41.7294C42.6468 48.1622 34.7663 50.5505 25.7449 48.1259C25.5274 48.0636 25.3054 47.9909 25.0878 47.913L24.6616 47.7625C24.373 47.6586 24.0845 47.5444 23.8048 47.4302C23.8003 47.4302 23.6716 47.3731 23.6716 47.3731C23.4229 47.2744 23.1743 47.1602 22.9568 47.0615L22.7082 46.9473C22.4329 46.8175 22.1576 46.6825 21.8912 46.5423L21.7359 46.4645C21.4961 46.3347 21.2653 46.2101 21.0344 46.0751C21.0166 46.0647 20.8346 45.9608 20.8168 45.9556C20.657 45.8622 20.4972 45.7635 20.293 45.6337L19.3651 45.0522C19.2718 44.9796 19.1742 44.9121 19.0809 44.8549C18.8012 44.6525 18.5126 44.45 18.2285 44.2371C18.1619 44.1904 18.1042 44.1385 17.9932 44.0502C17.7979 43.9048 17.6069 43.7542 17.3272 43.5258L17.2163 43.4323C17.0253 43.2766 16.8389 43.1104 16.6835 42.9755C16.5858 42.8924 16.4881 42.7989 16.3283 42.6587C16.1862 42.5289 16.0442 42.4043 15.911 42.2797L15.6624 42.0409C15.4537 41.8436 15.2584 41.6359 15.0541 41.4334C15.0275 41.4023 15.0053 41.3815 14.9742 41.3556C14.7478 41.1115 14.5169 40.8675 14.2417 40.5612L13.4381 39.6266C13.2427 39.393 13.0474 39.1542 12.8254 38.8686C12.6212 38.6038 12.4258 38.339 12.1639 37.9756L11.6844 37.2902C11.6267 37.1916 11.5645 37.0929 11.4891 36.9891C11.3248 36.7295 11.1605 36.4751 10.9963 36.2051C6.57432 29.0817 5.42 14.2119 8.8652 8.76552C9.2115 8.22036 9.14934 7.45195 8.71425 6.98986C8.50114 6.76142 8.22588 6.64719 7.95506 6.64719Z" fill="black"/>
</svg>
